<svg id="Layer_1_copy_2" data-name="Layer 1 copy 2" xmlns="http://www.w3.org/2000/svg" viewBox="0 0 312.82 112.3"><defs><style>.cls-1{fill:#d7090c;fill-rule:evenodd;}</style></defs><path class="cls-1" d="M382.13,142.78c-2.27-.36-3.59,2.87-9,8.1-3,2.94-6.22,6-11.44,8.15-7.65,3.25-9-1.11-8.21-7.42.82-6.67,3.69-15.24,4.65-19.81a7.55,7.55,0,0,0-1-5.85c-1.56-2.4-5.27-3.7-7.2-1.42-2.83,3.36-4.08,5.81-13.21,17.25-8,10.08-18.38,18.38-24.2,13.87-3.18-2.46-3.56-7.44,0-14.35,3.85-7.53,12.71-16.17,20.61-21.92,10.34-7.52,16-8.74,17.13-9,1.39-.36,2.47-.41,2.94.16,1.15,1.44-1.92,3.12-.93,6.4a5.17,5.17,0,0,0,4.5,3.36c2,.16,6.82-1.1,7.84-7.35s-4.76-17.3-31.34-7.14c-20.34,7.78-40.95,27.58-44.53,43.69-4,2.56-8.93,4.7-14,4.31-9.38-.72-8.58-12.16-4-21s12.94-15,15.5-17.39c3.56-3.3,7-3.74,4.93-9.53-1.46-4-3.75-4.28-7.59-3.18a171.33,171.33,0,0,1-27,5.39c-.23-4.43-2.94-8.74-8.86-8.73-6.12,0-12.47,5.7-13.6,12.84-1.21,7.75,2.55,11.71,6,13.16-7,13-22,29-36.45,30.08-4.08.31-7.82-1.11-9.74-3.34,9.66-5.55,19.21-13,24.57-24.1,7.05-14.63,0-23.23-10.2-23.23-11.44,0-32.36,11.61-38.73,31.56a34.15,34.15,0,0,0-.49,18.44,58.09,58.09,0,0,1-18.62,3.47c-9.05,0-9.21-7-7-11.69,1.55-3.3,14-29.83,22.51-47.86,27.45-4.86,64.24-11.33,71-12.56,4.09-.75,9-1,8.74-4.48-.23-2.64-3.53-2.56-6.26-2.45l-65.82,3.35c7-17-9.42-23.57-12.18-19.78C160.33,64.28,156,73,150.74,83.73l-12.12.6c-5.38.41-14.16,1.28-15.4,10-1,6.87,6.12,10.9,14.14,9.43,1-.2,2.41-.45,4.06-.74-5.7,11.93-10.79,22.71-12.37,26.2-3.92,8.6-8,16.36-8.94,23.63-5.79,3.43-12.14,6-17.63,5.78-9.06-.34-8.78-7.47-6.86-11.67,1.37-3,3.75-8.31,6.83-14.93,4.17-9,.16-15.84-6.34-18.15-4.41-1.56-8.46-1.65-10.22-.08-2.27,2-.55,7.09-2.43,11.22-4,8.27-7.1,15.43-9.18,19.85-4.5,9.5-3.73,17.73,1,23,3.36,3.75,9,6.16,16.57,6.16,9.05,0,20.23-5,29.45-11.13a21.28,21.28,0,0,0,1.08,2.2c2.89,5,9,8.51,17.46,8.51,9.28,0,22.62-4.58,33.11-10.48,3.82,5.24,10.1,9,19.62,9.11,27.48.41,49.2-25.7,57.82-46.38,7.61-1.09,17.06-4.85,17.06-4.85s-24.41,22.51-19,40.2c2.16,7,9.47,12.88,19.94,11.85,8.4-.81,15.67-5.58,21.29-10.84,3.72,9.28,13.31,10.74,19.76,9.81,16.06-2.33,26.75-18.2,26.75-18.2s-1.67,6.11.57,11.42c1.62,3.85,5.49,7.42,12.71,7.42,16.26,0,29.05-16.61,31.69-20.68,4.27-6.66,3.24-8.88.95-9.23m-193.31,1.87c-.36-.86-2.28-8.22,3.4-17.53,4.74-7.8,13-12.44,16.24-9.65,2.23,1.91-.17,8.43-7.3,16.64a47.18,47.18,0,0,1-12.34,10.54" transform="translate(-71.29 -61.75)"/><path class="cls-1" d="M100.84,107.32c6.76,0,13.46-5.28,14.93-11.8S113,83.7,106.19,83.7,92.71,89,91.24,95.52s2.82,11.8,9.6,11.8" transform="translate(-71.29 -61.75)"/></svg>