<svg width="505" height="63" viewBox="0 0 505 63" fill="none" xmlns="http://www.w3.org/2000/svg">
<path d="M0.043535 12.5327H20.5237C20.5294 12.5327 20.535 12.5338 20.5403 12.536C20.5456 12.5382 20.5504 12.5415 20.5544 12.5455C20.5585 12.5496 20.5617 12.5544 20.5639 12.5598C20.5661 12.5651 20.5672 12.5708 20.5672 12.5766V50.0869C20.5672 50.0985 20.5626 50.1097 20.5544 50.1179C20.5463 50.1262 20.5352 50.1308 20.5237 50.1308H0.043535C0.0319888 50.1308 0.0209155 50.1354 0.0127511 50.1436C0.00458671 50.1518 0 50.163 0 50.1746L0 62.6196C0 62.6312 0.00458671 62.6424 0.0127511 62.6506C0.0209155 62.6588 0.0319888 62.6635 0.043535 62.6635H55.9301C55.9416 62.6635 55.9527 62.6588 55.9609 62.6506C55.969 62.6424 55.9736 62.6312 55.9736 62.6196V50.1746C55.9736 50.163 55.969 50.1518 55.9609 50.1436C55.9527 50.1354 55.9416 50.1308 55.9301 50.1308H35.4935C35.4819 50.1308 35.4709 50.1262 35.4627 50.1179C35.4545 50.1097 35.45 50.0985 35.45 50.0869V12.5766C35.45 12.5708 35.4511 12.5651 35.4533 12.5598C35.4555 12.5544 35.4587 12.5496 35.4627 12.5455C35.4667 12.5415 35.4715 12.5382 35.4768 12.536C35.4821 12.5338 35.4878 12.5327 35.4935 12.5327H55.9301C55.9416 12.5327 55.9527 12.5281 55.9609 12.5198C55.969 12.5116 55.9736 12.5005 55.9736 12.4888V0.0438644C55.9736 0.0322309 55.969 0.0210738 55.9609 0.0128476C55.9527 0.00462142 55.9416 0 55.9301 0L0.043535 0C0.0319888 0 0.0209155 0.00462142 0.0127511 0.0128476C0.00458671 0.0210738 0 0.0322309 0 0.0438644L0 12.4888C0 12.5005 0.00458671 12.5116 0.0127511 12.5198C0.0209155 12.5281 0.0319888 12.5327 0.043535 12.5327V12.5327Z" fill="#FF4B33"/>
<path d="M110.751 12.5327H132.742C132.748 12.5327 132.753 12.5338 132.759 12.536C132.764 12.5382 132.769 12.5415 132.773 12.5455C132.777 12.5496 132.78 12.5544 132.782 12.5598C132.784 12.5651 132.786 12.5708 132.786 12.5766V62.6196C132.786 62.6312 132.79 62.6424 132.798 62.6506C132.806 62.6588 132.818 62.6635 132.829 62.6635H148.29C148.302 62.6635 148.313 62.6588 148.321 62.6506C148.329 62.6424 148.334 62.6312 148.334 62.6196V12.5766C148.334 12.5708 148.335 12.5651 148.337 12.5598C148.339 12.5544 148.342 12.5496 148.346 12.5455C148.351 12.5415 148.355 12.5382 148.361 12.536C148.366 12.5338 148.372 12.5327 148.377 12.5327H170.369C170.38 12.5327 170.391 12.5281 170.399 12.5198C170.408 12.5116 170.412 12.5005 170.412 12.4888V0.0438644C170.412 0.0322309 170.408 0.0210738 170.399 0.0128476C170.391 0.00462142 170.38 0 170.369 0L110.751 0C110.739 0 110.728 0.00462142 110.72 0.0128476C110.712 0.0210738 110.707 0.0322309 110.707 0.0438644V12.4888C110.707 12.5005 110.712 12.5116 110.72 12.5198C110.728 12.5281 110.739 12.5327 110.751 12.5327Z" fill="#FF4B33"/>
<path d="M338.376 62.6635H353.837C353.849 62.6635 353.86 62.6589 353.868 62.6506C353.876 62.6424 353.881 62.6313 353.881 62.6196V40.7939C353.881 40.7882 353.882 40.7825 353.884 40.7771C353.886 40.7718 353.889 40.767 353.893 40.7629C353.898 40.7588 353.902 40.7556 353.908 40.7534C353.913 40.7512 353.919 40.7501 353.924 40.7501H380.568C380.579 40.7501 380.59 40.7547 380.598 40.7629C380.607 40.7711 380.611 40.7823 380.611 40.7939V62.6196C380.611 62.6254 380.612 62.6311 380.615 62.6364C380.617 62.6417 380.62 62.6466 380.624 62.6506C380.628 62.6547 380.633 62.6579 380.638 62.6601C380.643 62.6623 380.649 62.6635 380.655 62.6635H396.203C396.213 62.662 396.223 62.6567 396.23 62.6486C396.237 62.6405 396.24 62.6302 396.24 62.6196L396.172 37.642C396.172 37.6362 396.171 37.6305 396.169 37.6252C396.166 37.6198 396.163 37.615 396.159 37.6109C396.155 37.6069 396.15 37.6036 396.145 37.6014C396.14 37.5992 396.134 37.5981 396.128 37.5981H387.384C387.378 37.5942 387.372 37.5887 387.369 37.5821C387.365 37.5755 387.363 37.5681 387.363 37.5605C387.363 37.5529 387.365 37.5455 387.369 37.5389C387.372 37.5323 387.378 37.5268 387.384 37.5229C391.082 35.1676 393.921 31.6651 395.472 27.5432C397.023 23.4212 397.203 18.903 395.984 14.6693C394.765 10.4355 392.213 6.71551 388.714 4.06972C385.214 1.42392 380.956 -0.0043744 376.581 1.00642e-05H338.376C338.37 1.00642e-05 338.365 0.00114465 338.359 0.00334905C338.354 0.00555344 338.349 0.00878447 338.345 0.0128577C338.341 0.0169308 338.338 0.0217664 338.336 0.0270883C338.334 0.0324102 338.333 0.0381141 338.333 0.0438745V62.6196C338.333 62.6254 338.334 62.6311 338.336 62.6364C338.338 62.6417 338.341 62.6466 338.345 62.6506C338.349 62.6547 338.354 62.6579 338.359 62.6601C338.365 62.6623 338.37 62.6635 338.376 62.6635V62.6635ZM373.509 28.0983L353.924 28.1986C353.913 28.1986 353.902 28.1939 353.893 28.1857C353.885 28.1775 353.881 28.1663 353.881 28.1547V12.564C353.882 12.5529 353.887 12.5425 353.895 12.5345C353.903 12.5265 353.913 12.5215 353.924 12.5202H373.204C375.188 12.4836 377.113 13.1965 378.602 14.5186C380.09 15.8407 381.033 17.6762 381.246 19.6638C381.339 20.7412 381.208 21.8264 380.861 22.8497C380.514 23.8731 379.958 24.8121 379.23 25.6063C378.501 26.4005 377.616 27.0325 376.631 27.4617C375.646 27.8908 374.582 28.1077 373.509 28.0983V28.0983Z" fill="#FF4B33"/>
<path d="M281.69 50.1308H240.145C240.133 50.1308 240.122 50.1262 240.114 50.1179C240.106 50.1097 240.101 50.0985 240.101 50.0869V37.6419C240.101 37.6303 240.106 37.6192 240.114 37.6109C240.122 37.6027 240.133 37.5981 240.145 37.5981H273.648C273.66 37.5981 273.671 37.5935 273.679 37.5852C273.687 37.577 273.692 37.5658 273.692 37.5542V25.1093C273.692 25.1035 273.69 25.0978 273.688 25.0925C273.686 25.0871 273.683 25.0823 273.679 25.0782C273.675 25.0742 273.67 25.0709 273.665 25.0687C273.659 25.0665 273.654 25.0654 273.648 25.0654H240.145C240.133 25.0654 240.122 25.0608 240.114 25.0525C240.106 25.0443 240.101 25.0332 240.101 25.0215V12.5766C240.101 12.5708 240.102 12.5651 240.104 12.5598C240.107 12.5544 240.11 12.5496 240.114 12.5455C240.118 12.5415 240.123 12.5382 240.128 12.536C240.133 12.5338 240.139 12.5327 240.145 12.5327H281.64C281.651 12.5327 281.662 12.5281 281.671 12.5198C281.679 12.5116 281.683 12.5005 281.683 12.4888V0.0438644C281.683 0.0322309 281.679 0.0210738 281.671 0.0128476C281.662 0.00462142 281.651 0 281.64 0L224.559 0C224.548 0 224.537 0.00462142 224.528 0.0128476C224.52 0.0210738 224.516 0.0322309 224.516 0.0438644V12.5327H224.565V62.6196C224.565 62.6312 224.57 62.6424 224.578 62.6506C224.586 62.6588 224.597 62.6635 224.609 62.6635H281.69C281.701 62.6635 281.712 62.6588 281.72 62.6506C281.729 62.6424 281.733 62.6312 281.733 62.6196V50.1746C281.733 50.163 281.729 50.1518 281.72 50.1436C281.712 50.1354 281.701 50.1308 281.69 50.1308V50.1308Z" fill="#FF4B33"/>
<path d="M488.835 0.0313354C488.837 0.0264201 488.838 0.0210766 488.838 0.0156695C488.838 0.0102625 488.837 0.00491902 488.835 3.67228e-06H459.044C459.035 -0.000121727 459.027 0.00296804 459.02 0.00871444C459.013 0.0144608 459.008 0.0224846 459.007 0.0313354L442.812 62.6071C442.81 62.6138 442.81 62.6208 442.811 62.6277C442.812 62.6346 442.815 62.6411 442.819 62.6466C442.823 62.6521 442.829 62.6565 442.835 62.6594C442.842 62.6624 442.848 62.6638 442.855 62.6635H457.116C457.122 62.6668 457.128 62.6685 457.135 62.6685C457.141 62.6685 457.148 62.6668 457.154 62.6635L462.316 42.6738C462.321 42.6705 462.328 42.6688 462.334 42.6688C462.341 42.6688 462.347 42.6705 462.353 42.6738H485.526C485.532 42.6705 485.538 42.6688 485.545 42.6688C485.551 42.6688 485.558 42.6705 485.563 42.6738L490.7 62.6635C490.706 62.6668 490.712 62.6685 490.719 62.6685C490.726 62.6685 490.732 62.6668 490.738 62.6635H504.955C504.962 62.6638 504.969 62.6624 504.975 62.6594C504.981 62.6565 504.987 62.6521 504.991 62.6466C504.995 62.6411 504.998 62.6346 505 62.6277C505.001 62.6208 505 62.6138 504.998 62.6071L488.835 0.0313354ZM482.236 30.0785H465.581C465.574 30.0788 465.567 30.0774 465.561 30.0744C465.554 30.0715 465.549 30.0671 465.544 30.0616C465.54 30.0561 465.537 30.0496 465.536 30.0427C465.535 30.0358 465.535 30.0288 465.537 30.0221L471.34 7.55095C471.341 7.5421 471.346 7.53408 471.353 7.52833C471.359 7.52258 471.368 7.51949 471.377 7.51962H476.44C476.448 7.51949 476.457 7.52258 476.464 7.52833C476.471 7.53408 476.475 7.5421 476.477 7.55095L482.279 30.0221C482.281 30.0288 482.282 30.0358 482.281 30.0427C482.279 30.0496 482.276 30.0561 482.272 30.0616C482.268 30.0671 482.262 30.0715 482.256 30.0744C482.25 30.0774 482.243 30.0788 482.236 30.0785Z" fill="#FF4B33"/>
</svg>
